<?xml version="1.0" standalone="no"?>
<!DOCTYPE svg PUBLIC "-//W3C//DTD SVG 20010904//EN"
 "http://www.w3.org/TR/2001/REC-SVG-20010904/DTD/svg10.dtd">
<svg version="1.0" xmlns="http://www.w3.org/2000/svg"
 width="500.000000pt" height="500.000000pt" viewBox="0 0 500.000000 500.000000"
 preserveAspectRatio="xMidYMid meet">

<g transform="translate(0.000000,500.000000) scale(0.100000,-0.100000)"
fill="#000000" stroke="none">
<path d="M1340 3550 c0 -5 14 -10 30 -10 19 0 40 -9 55 -25 l25 -24 0 -243 0
-243 -66 -38 c-134 -79 -261 -222 -333 -379 -60 -129 -75 -201 -75 -363 0
-162 15 -234 75 -363 72 -156 175 -274 323 -371 141 -92 280 -131 466 -131
158 0 246 21 385 89 199 99 459 342 635 594 l54 77 223 0 c211 0 277 9 182 25
-78 13 -79 17 -79 258 l0 214 59 79 c98 132 136 169 213 210 73 39 73 39 188
39 111 0 117 -1 179 -33 158 -83 246 -255 219 -427 -33 -214 -225 -361 -445
-340 -82 8 -104 -9 -27 -21 237 -35 457 124 496 360 18 109 -19 243 -92 336
-41 52 -140 116 -207 136 -72 21 -190 20 -256 -2 -105 -35 -158 -78 -267 -222
-48 -64 -55 -70 -58 -48 -3 25 259 616 294 662 13 18 32 27 62 31 83 11 40 23
-83 23 -77 0 -125 -4 -125 -10 0 -5 14 -10 31 -10 42 0 69 -17 69 -42 0 -23
-269 -618 -280 -618 -5 0 -282 565 -293 602 -10 31 17 51 77 56 31 2 56 8 56
13 0 5 -110 9 -245 9 -135 0 -245 -4 -245 -9 0 -4 20 -11 45 -14 25 -2 55 -13
67 -23 11 -11 99 -178 194 -373 l174 -354 0 -139 0 -139 -92 -137 c-200 -299
-380 -500 -579 -645 -182 -132 -297 -175 -491 -184 -182 -9 -331 28 -476 118
-310 190 -466 545 -394 893 46 220 171 405 362 536 l75 51 3 -256 c3 -296 1
-305 -65 -319 -24 -6 -43 -14 -43 -19 0 -5 151 -7 353 -4 373 4 399 7 502 57
97 47 165 160 165 275 0 146 -98 244 -264 264 -54 7 -58 8 -31 15 73 19 94 29
132 61 108 92 119 308 20 402 -92 88 -173 103 -568 103 -199 0 -309 -4 -309
-10z m606 -26 c69 -23 101 -51 132 -114 23 -47 27 -67 27 -145 0 -77 -4 -98
-26 -140 -26 -51 -84 -97 -140 -110 -22 -6 -27 -3 -33 19 -12 47 -46 59 -149
53 -51 -2 -100 -8 -109 -12 -17 -7 -18 7 -18 206 0 118 4 219 8 226 15 23 58
32 159 32 69 1 118 -4 149 -15z m-170 -489 l-11 -35 -67 0 c-65 0 -68 1 -68
24 0 20 7 25 48 34 26 5 61 10 78 11 31 1 31 1 20 -34z m24 -70 c15 -18 59
-19 83 -1 13 10 29 11 65 5 155 -29 215 -100 214 -254 -1 -109 -28 -181 -88
-234 -69 -60 -125 -76 -275 -76 -183 0 -169 -25 -169 307 l0 268 79 0 c58 0
82 -4 91 -15z m1240 -725 c0 -66 -13 -81 -78 -95 l-32 -7 52 81 c29 45 53 81
55 81 2 0 3 -27 3 -60z"/>
<path d="M1900 1910 c0 -50 1 -51 28 -48 25 3 27 6 27 48 0 42 -2 45 -27 48
-27 3 -28 2 -28 -48z m43 25 c1 -5 -6 -11 -15 -13 -11 -2 -18 3 -18 13 0 17
30 18 33 0z m7 -45 c0 -13 -7 -20 -20 -20 -13 0 -20 7 -20 20 0 13 7 20 20 20
13 0 20 -7 20 -20z"/>
<path d="M2080 1910 l0 -50 33 1 c31 2 31 2 4 6 -35 5 -33 34 3 44 l25 7 -27
1 c-17 1 -28 7 -28 15 0 8 12 17 28 19 25 4 25 4 -5 6 l-33 1 0 -50z"/>
<path d="M3158 1932 c11 -15 22 -38 25 -52 4 -24 4 -24 6 3 0 15 8 40 17 55
l16 27 -20 -23 -21 -23 -13 20 c-7 12 -17 21 -21 21 -5 0 0 -12 11 -28z"/>
<path d="M3357 1942 c-22 -24 -21 -45 2 -66 26 -23 63 -17 78 14 25 50 -42 94
-80 52z m71 -26 c5 -45 -47 -65 -68 -26 -16 31 4 62 38 58 21 -2 28 -9 30 -32z"/>
<path d="M3574 1915 c1 -49 2 -50 31 -50 29 0 30 1 31 50 l2 50 -7 -45 c-5
-36 -10 -45 -26 -45 -16 0 -21 9 -26 45 l-7 45 2 -50z"/>
</g>
</svg>
